<?xml version="1.0" encoding="UTF-8"?><svg xmlns="http://www.w3.org/2000/svg" viewBox="0 0 854.61 170.69"><defs><style>.d{fill:#ff9906;}.e{fill:#f2f2f2;}</style></defs><g id="a"/><g id="b"><g id="c"><g><g><path class="d" d="M501.74,67.6c.03,4.59-3.62,8.33-8.12,8.34-4.47,0-8.2-3.8-8.18-8.33,.03-4.41,3.65-8.13,8.03-8.26,4.39-.12,8.24,3.71,8.26,8.25Z"/><circle class="d" cx="81.64" cy="22.62" r="21.17"/><circle class="d" cx="81.64" cy="85.35" r="21.17"/></g><g><path class="e" d="M553.28,4.89h15.56V49.79h24.67v13.45h-24.67v107.46h-15.56V63.23h-21.23v-13.45h21.23V4.89Z"/><path class="e" d="M355.26,0V167.58h-15.34v-20.78c-6.52,7.93-13.83,13.89-21.95,17.89-8.11,4-16.99,6-26.61,6-17.11,0-31.73-6.2-43.84-18.61-12.11-12.41-18.17-27.5-18.17-45.28s6.11-32.3,18.34-44.67c12.22-12.37,26.93-18.56,44.12-18.56,9.93,0,18.91,2.11,26.95,6.33,8.04,4.22,15.09,10.56,21.17,19V0h15.34Zm-62.18,58.56c-8.66,0-16.65,2.13-23.98,6.38-7.33,4.25-13.15,10.23-17.48,17.93-4.33,7.7-6.49,15.83-6.49,24.42s2.18,16.65,6.55,24.42c4.37,7.77,10.23,13.82,17.59,18.15,7.36,4.33,15.26,6.49,23.7,6.49s16.58-2.15,24.2-6.44c7.62-4.29,13.48-10.1,17.59-17.43,4.11-7.33,6.16-15.58,6.16-24.75,0-13.98-4.61-25.68-13.82-35.08-9.21-9.4-20.55-14.1-34.02-14.1Z"/><g><path class="e" d="M623.31,90.43h7.82v70.73h30.12v7.56h-37.95V90.43Z"/><path class="e" d="M705.64,90.43l36.51,78.29h-8.45l-12.31-25.76h-33.73l-12.2,25.76h-8.73l36.99-78.29h1.92Zm-.99,16.63l-13.42,28.34h26.77l-13.35-28.34Z"/><path class="e" d="M754.5,90.43h15.43c6.21,0,10.98,.74,14.32,2.21,3.33,1.47,5.97,3.74,7.9,6.79,1.93,3.05,2.9,6.44,2.9,10.17,0,3.48-.85,6.64-2.54,9.5-1.69,2.86-4.18,5.17-7.47,6.95,4.07,1.38,7.2,3.01,9.39,4.87,2.19,1.86,3.9,4.12,5.12,6.76,1.22,2.64,1.83,5.51,1.83,8.6,0,6.28-2.3,11.59-6.89,15.94s-10.76,6.52-18.49,6.52h-21.5V90.43Zm7.66,7.66v25.07h4.48c5.44,0,9.44-.51,12-1.52,2.56-1.01,4.59-2.61,6.08-4.79,1.49-2.18,2.24-4.6,2.24-7.27,0-3.58-1.25-6.39-3.76-8.44-2.51-2.04-6.5-3.06-11.97-3.06h-9.07Zm0,32.95v30.02h9.7c5.72,0,9.92-.56,12.58-1.68,2.67-1.12,4.81-2.86,6.42-5.24,1.62-2.38,2.43-4.95,2.43-7.72,0-3.48-1.14-6.51-3.41-9.1-2.27-2.59-5.4-4.36-9.38-5.32-2.67-.64-7.31-.96-13.92-.96h-4.43Z"/><path class="e" d="M808.79,154.14l6.65-3.99c4.68,8.62,10.09,12.93,16.23,12.93,2.63,0,5.09-.61,7.4-1.84,2.31-1.22,4.06-2.87,5.27-4.92,1.21-2.06,1.81-4.24,1.81-6.55,0-2.62-.89-5.2-2.66-7.72-2.45-3.48-6.92-7.66-13.41-12.56-6.53-4.93-10.59-8.5-12.19-10.7-2.77-3.69-4.15-7.68-4.15-11.98,0-3.41,.82-6.51,2.45-9.31,1.63-2.8,3.93-5.01,6.89-6.63,2.96-1.61,6.18-2.42,9.66-2.42,3.69,0,7.14,.91,10.35,2.74,3.21,1.83,6.61,5.19,10.19,10.08l-6.39,4.84c-2.95-3.9-5.46-6.47-7.53-7.72-2.08-1.24-4.34-1.86-6.79-1.86-3.16,0-5.74,.96-7.74,2.87s-3.01,4.28-3.01,7.08c0,1.7,.35,3.35,1.06,4.95,.71,1.6,2,3.34,3.88,5.22,1.03,.99,4.4,3.6,10.11,7.82,6.78,5,11.42,9.46,13.94,13.36,2.52,3.9,3.78,7.82,3.78,11.76,0,5.68-2.16,10.61-6.47,14.8-4.31,4.19-9.55,6.28-15.73,6.28-4.76,0-9.07-1.27-12.93-3.8-3.87-2.54-7.43-6.79-10.7-12.75Z"/></g><path class="e" d="M512.38,82.14c-3.33,4.38-8.13,7.56-13.64,8.76,1.84,5.24,2.77,10.87,2.77,16.89,0,8.74-2.12,16.89-6.36,24.45-4.24,7.56-9.96,13.39-17.17,17.5-7.21,4.11-15.13,6.17-23.75,6.17s-16.54-2.06-23.75-6.17c-7.21-4.11-12.94-9.95-17.17-17.5-4.24-7.56-6.36-15.71-6.36-24.45,0-13.56,4.65-25.11,13.94-34.67,9.29-9.56,20.41-14.33,33.34-14.33,5.97,0,11.55,1.04,16.75,3.1,1.33-5.33,4.48-10.02,8.72-13.32-7.68-3.33-16.16-5-25.42-5-18.7,0-34.18,6.78-46.42,20.34-11.13,12.3-16.7,26.82-16.7,43.56s5.88,31.65,17.65,44.28c11.76,12.63,26.92,18.95,45.48,18.95s33.6-6.31,45.36-18.95c11.76-12.63,17.65-27.39,17.65-44.28,0-9.1-1.65-17.54-4.91-25.32Z"/><g><circle class="e" cx="21.17" cy="22.62" r="21.17"/><circle class="e" cx="146.36" cy="22.62" r="21.17"/><circle class="e" cx="21.17" cy="85.35" r="21.17"/><circle class="e" cx="146.36" cy="85.35" r="21.17"/><circle class="e" cx="21.17" cy="148.07" r="21.17"/><circle class="e" cx="81.64" cy="148.07" r="21.17"/><circle class="e" cx="146.36" cy="148.07" r="21.17"/></g></g></g></g></g></svg>